<?xml version="1.0" standalone="no"?>
<!DOCTYPE svg PUBLIC "-//W3C//DTD SVG 20010904//EN"
 "http://www.w3.org/TR/2001/REC-SVG-20010904/DTD/svg10.dtd">
<svg version="1.0" xmlns="http://www.w3.org/2000/svg"
 width="152.000000pt" height="152.000000pt" viewBox="0 0 152.000000 152.000000"
 preserveAspectRatio="xMidYMid meet">
<metadata>
Created by potrace 1.11, written by Peter Selinger 2001-2013
</metadata>
<g transform="translate(0.000000,152.000000) scale(0.100000,-0.100000)"
fill="#000000" stroke="none">
<path d="M132 1509 c-44 -13 -108 -79 -121 -126 -7 -25 -11 -243 -11 -625 l0
-588 755 0 755 0 0 605 c0 658 2 631 -57 687 -62 59 -48 58 -695 57 -341 0
-607 -5 -626 -10z m853 -124 c222 -62 377 -211 377 -363 0 -150 -115 -268
-333 -344 -93 -32 -96 -33 -274 -33 -178 0 -181 1 -274 33 -117 41 -194 86
-255 152 -61 66 -86 120 -86 193 0 169 162 315 415 371 92 21 343 15 430 -9z
m-665 -878 c17 -9 26 -22 28 -44 5 -46 -34 -73 -105 -73 l-54 0 3 -52 3 -53
48 -3 c62 -4 97 17 97 58 0 17 -7 33 -17 39 -10 6 -14 11 -9 11 33 1 59 -65
38 -98 -18 -27 -125 -42 -163 -22 -17 10 -19 22 -19 118 0 71 4 112 12 120 16
16 106 15 138 -1z m440 3 c0 -6 -60 -10 -160 -10 l-160 0 0 -48 0 -48 38 4
c20 2 46 12 57 22 11 10 30 21 43 25 26 8 84 -3 77 -15 -3 -4 3 -7 13 -6 10 0
18 -7 20 -21 3 -19 6 -21 22 -10 15 9 22 9 32 -1 9 -9 6 -12 -15 -12 -16 0
-30 -7 -34 -15 -7 -19 -55 -45 -82 -45 -30 0 -91 32 -91 47 0 9 -14 13 -40 13
l-40 0 0 -45 c0 -25 0 -48 0 -52 0 -5 75 -10 167 -13 l168 -6 -176 -2 c-153
-2 -178 0 -183 14 -11 30 -7 209 6 222 15 15 338 17 338 2z m215 -107 c26 -65
49 -124 52 -130 3 -7 1 -13 -5 -13 -5 0 -17 18 -26 40 l-16 40 -63 0 -64 0
-16 -41 c-9 -22 -20 -38 -26 -35 -13 8 88 256 104 256 7 0 34 -53 60 -117z
m186 -8 c35 -86 50 -114 54 -100 31 99 85 221 99 223 14 3 16 -12 16 -127 0
-92 -3 -131 -11 -131 -9 0 -10 33 -6 121 3 66 4 119 2 117 -2 -2 -24 -56 -50
-121 -27 -67 -52 -116 -59 -114 -6 2 -32 57 -58 123 l-47 119 -1 -122 c0 -75
-4 -123 -10 -123 -6 0 -10 50 -10 131 0 171 13 171 81 4z"/>
<path d="M625 1380 c-233 -36 -422 -164 -454 -309 -12 -54 1 -130 29 -176 24
-39 97 -108 131 -124 24 -11 24 -11 -1 6 -141 101 -186 228 -124 351 102 206
498 306 813 207 134 -43 251 -126 286 -206 10 -22 20 -37 22 -35 11 10 -40 86
-88 132 -101 95 -260 151 -449 159 -58 2 -132 0 -165 -5z"/>
<path d="M449 1051 c-17 -18 -29 -40 -29 -56 0 -32 49 -85 79 -85 79 0 119 89
65 144 -36 35 -77 34 -115 -3z"/>
<path d="M1029 1051 c-17 -18 -29 -40 -29 -56 0 -32 50 -85 80 -85 78 0 119
91 65 145 -34 35 -78 33 -116 -4z"/>
<path d="M10 140 c0 -20 7 -20 744 -20 669 0 744 2 750 16 3 9 6 18 6 20 0 2
-337 4 -750 4 -743 0 -750 0 -750 -20z"/>
<path d="M42 78 c4 -10 156 -14 710 -16 618 -2 707 0 718 13 11 13 -67 15
-710 15 -573 0 -721 -3 -718 -12z"/>
<path d="M150 10 c14 -4 288 -8 610 -8 322 0 596 4 610 8 14 4 -261 8 -610 8
-349 0 -624 -4 -610 -8z"/>
</g>
</svg>
